<?xml version="1.0" standalone="no"?>
<!DOCTYPE svg PUBLIC "-//W3C//DTD SVG 20010904//EN"
 "http://www.w3.org/TR/2001/REC-SVG-20010904/DTD/svg10.dtd">
<svg version="1.0" xmlns="http://www.w3.org/2000/svg"
 width="511.000000pt" height="511.000000pt" viewBox="0 0 511.000000 511.000000"
 preserveAspectRatio="xMidYMid meet">
<metadata>
Created by potrace 1.11, written by Peter Selinger 2001-2013
</metadata>
<g transform="translate(0.000000,511.000000) scale(0.100000,-0.100000)"
fill="#000000" stroke="none">
<path d="M805 4197 c-3 -7 -4 -143 -3 -302 l3 -290 173 -3 172 -2 1 -583 c0
-454 3 -578 12 -563 156 250 289 380 506 495 l86 46 0 605 0 605 -473 3 c-375
2 -474 0 -477 -11z"/>
<path d="M2405 4197 c-3 -7 -4 -143 -3 -302 l3 -290 597 -3 598 -2 2 -1348 3
-1347 300 0 300 0 0 1650 0 1650 -898 3 c-717 2 -899 0 -902 -11z"/>
<path d="M2115 2898 c-474 -36 -867 -428 -903 -903 -24 -311 74 -582 287 -796
213 -212 485 -311 796 -287 474 36 867 428 903 903 24 311 -74 582 -287 796
-213 212 -485 311 -796 287z m184 -579 c153 -35 285 -167 320 -320 61 -261
-145 -519 -414 -519 -231 0 -425 194 -425 425 0 269 258 475 519 414z"/>
</g>
</svg>
