<?xml version="1.0" standalone="no"?>
<!DOCTYPE svg PUBLIC "-//W3C//DTD SVG 20010904//EN"
 "http://www.w3.org/TR/2001/REC-SVG-20010904/DTD/svg10.dtd">
<svg version="1.0" xmlns="http://www.w3.org/2000/svg"
 width="196.000000pt" height="196.000000pt" viewBox="0 0 196.000000 196.000000"
 preserveAspectRatio="xMidYMid meet">
<metadata>
Created by potrace 1.11, written by Peter Selinger 2001-2013
</metadata>
<g transform="translate(0.000000,196.000000) scale(0.100000,-0.100000)"
fill="#000000" stroke="none">
<path d="M0 1805 l0 -155 100 0 100 0 0 -321 0 -321 44 58 c24 33 61 75 82 96
50 46 153 118 171 118 11 0 13 63 13 340 l0 340 -255 0 -255 0 0 -155z"/>
<path d="M1200 1805 l0 -155 225 0 225 0 0 -800 0 -800 155 0 155 0 0 955 0
955 -380 0 -380 0 0 -155z"/>
<path d="M686 1244 c-219 -43 -395 -207 -462 -429 -26 -88 -25 -239 4 -330 60
-195 212 -347 407 -407 97 -31 243 -31 340 0 194 60 347 213 407 407 31 97 31
243 0 340 -67 216 -248 379 -465 420 -94 18 -139 18 -231 -1z m228 -315 c72
-26 139 -94 166 -166 55 -146 -9 -306 -149 -375 -65 -33 -187 -33 -252 0 -184
90 -226 331 -83 475 81 83 205 109 318 66z"/>
</g>
</svg>
